<?xml version="1.0" encoding="utf-8" standalone="no"?>
<!DOCTYPE svg PUBLIC "-//W3C//DTD SVG 1.1//EN"
  "http://www.w3.org/Graphics/SVG/1.1/DTD/svg11.dtd">
<svg xmlns:xlink="http://www.w3.org/1999/xlink" width="1139.76pt" height="707.76pt" viewBox="0 0 1139.76 707.76" xmlns="http://www.w3.org/2000/svg" version="1.1">
 <metadata>
  <rdf:RDF xmlns:dc="http://purl.org/dc/elements/1.1/" xmlns:cc="http://creativecommons.org/ns#" xmlns:rdf="http://www.w3.org/1999/02/22-rdf-syntax-ns#">
   <cc:Work>
    <dc:type rdf:resource="http://purl.org/dc/dcmitype/StillImage"/>
    <dc:date>2025-08-04T23:22:34.034374</dc:date>
    <dc:format>image/svg+xml</dc:format>
    <dc:creator>
     <cc:Agent>
      <dc:title>Matplotlib v3.10.1, https://matplotlib.org/</dc:title>
     </cc:Agent>
    </dc:creator>
   </cc:Work>
  </rdf:RDF>
 </metadata>
 <defs>
  <style type="text/css">*{stroke-linejoin: round; stroke-linecap: butt}</style>
 </defs>
 <g id="figure_1">
  <g id="patch_1">
   <path d="M 0 707.76 
L 1139.76 707.76 
L 1139.76 0 
L 0 0 
z
" style="fill: #ffffff"/>
  </g>
  <g id="axes_1">
   <g id="patch_2">
    <path d="M 35.940227 647.064611 
L 1121.942624 647.064611 
L 1121.942624 37.253995 
L 35.940227 37.253995 
z
" style="fill: #ffffff"/>
   </g>
   <g id="patch_3">
    <path d="M 35.940227 647.064611 
L 46.80024 647.064611 
L 46.80024 647.064611 
L 35.940227 647.064611 
z
" clip-path="url(#p036f1513bb)" style="fill: #4ecdc4; opacity: 0.6; stroke: #45b7aa; stroke-width: 1.2; stroke-linejoin: miter"/>
   </g>
   <g id="patch_4">
    <path d="M 46.80024 647.064611 
L 57.66028 647.064611 
L 57.66028 647.064611 
L 46.80024 647.064611 
z
" clip-path="url(#p036f1513bb)" style="fill: #4ecdc4; opacity: 0.6; stroke: #45b7aa; stroke-width: 1.2; stroke-linejoin: miter"/>
   </g>
   <g id="patch_5">
    <path d="M 57.66028 647.064611 
L 68.520294 647.064611 
L 68.520294 647.064611 
L 57.66028 647.064611 
z
" clip-path="url(#p036f1513bb)" style="fill: #4ecdc4; opacity: 0.6; stroke: #45b7aa; stroke-width: 1.2; stroke-linejoin: miter"/>
   </g>
   <g id="patch_6">
    <path d="M 68.520294 647.064611 
L 79.380333 647.064611 
L 79.380333 647.064611 
L 68.520294 647.064611 
z
" clip-path="url(#p036f1513bb)" style="fill: #4ecdc4; opacity: 0.6; stroke: #45b7aa; stroke-width: 1.2; stroke-linejoin: miter"/>
   </g>
   <g id="patch_7">
    <path d="M 79.380333 647.064611 
L 90.240347 647.064611 
L 90.240347 647.064611 
L 79.380333 647.064611 
z
" clip-path="url(#p036f1513bb)" style="fill: #4ecdc4; opacity: 0.6; stroke: #45b7aa; stroke-width: 1.2; stroke-linejoin: miter"/>
   </g>
   <g id="patch_8">
    <path d="M 90.240347 647.064611 
L 101.10036 647.064611 
L 101.10036 647.064611 
L 90.240347 647.064611 
z
" clip-path="url(#p036f1513bb)" style="fill: #4ecdc4; opacity: 0.6; stroke: #45b7aa; stroke-width: 1.2; stroke-linejoin: miter"/>
   </g>
   <g id="patch_9">
    <path d="M 101.10036 647.064611 
L 111.9604 647.064611 
L 111.9604 647.064611 
L 101.10036 647.064611 
z
" clip-path="url(#p036f1513bb)" style="fill: #4ecdc4; opacity: 0.6; stroke: #45b7aa; stroke-width: 1.2; stroke-linejoin: miter"/>
   </g>
   <g id="patch_10">
    <path d="M 111.9604 647.064611 
L 122.820413 647.064611 
L 122.820413 647.064611 
L 111.9604 647.064611 
z
" clip-path="url(#p036f1513bb)" style="fill: #4ecdc4; opacity: 0.6; stroke: #45b7aa; stroke-width: 1.2; stroke-linejoin: miter"/>
   </g>
   <g id="patch_11">
    <path d="M 122.820413 647.064611 
L 133.680453 647.064611 
L 133.680453 647.064611 
L 122.820413 647.064611 
z
" clip-path="url(#p036f1513bb)" style="fill: #4ecdc4; opacity: 0.6; stroke: #45b7aa; stroke-width: 1.2; stroke-linejoin: miter"/>
   </g>
   <g id="patch_12">
    <path d="M 133.680453 647.064611 
L 144.540467 647.064611 
L 144.540467 647.064611 
L 133.680453 647.064611 
z
" clip-path="url(#p036f1513bb)" style="fill: #4ecdc4; opacity: 0.6; stroke: #45b7aa; stroke-width: 1.2; stroke-linejoin: miter"/>
   </g>
   <g id="patch_13">
    <path d="M 144.540467 647.064611 
L 155.40048 647.064611 
L 155.40048 647.064611 
L 144.540467 647.064611 
z
" clip-path="url(#p036f1513bb)" style="fill: #4ecdc4; opacity: 0.6; stroke: #45b7aa; stroke-width: 1.2; stroke-linejoin: miter"/>
   </g>
   <g id="patch_14">
    <path d="M 155.40048 647.064611 
L 166.26052 647.064611 
L 166.26052 647.064611 
L 155.40048 647.064611 
z
" clip-path="url(#p036f1513bb)" style="fill: #4ecdc4; opacity: 0.6; stroke: #45b7aa; stroke-width: 1.2; stroke-linejoin: miter"/>
   </g>
   <g id="patch_15">
    <path d="M 166.26052 647.064611 
L 177.120533 647.064611 
L 177.120533 647.064611 
L 166.26052 647.064611 
z
" clip-path="url(#p036f1513bb)" style="fill: #4ecdc4; opacity: 0.6; stroke: #45b7aa; stroke-width: 1.2; stroke-linejoin: miter"/>
   </g>
   <g id="patch_16">
    <path d="M 177.120533 647.064611 
L 187.980573 647.064611 
L 187.980573 647.064611 
L 177.120533 647.064611 
z
" clip-path="url(#p036f1513bb)" style="fill: #4ecdc4; opacity: 0.6; stroke: #45b7aa; stroke-width: 1.2; stroke-linejoin: miter"/>
   </g>
   <g id="patch_17">
    <path d="M 187.980573 647.064611 
L 198.840586 647.064611 
L 198.840586 647.064611 
L 187.980573 647.064611 
z
" clip-path="url(#p036f1513bb)" style="fill: #4ecdc4; opacity: 0.6; stroke: #45b7aa; stroke-width: 1.2; stroke-linejoin: miter"/>
   </g>
   <g id="patch_18">
    <path d="M 198.840586 647.064611 
L 209.7006 647.064611 
L 209.7006 647.064611 
L 198.840586 647.064611 
z
" clip-path="url(#p036f1513bb)" style="fill: #4ecdc4; opacity: 0.6; stroke: #45b7aa; stroke-width: 1.2; stroke-linejoin: miter"/>
   </g>
   <g id="patch_19">
    <path d="M 209.7006 647.064611 
L 220.56064 647.064611 
L 220.56064 647.064611 
L 209.7006 647.064611 
z
" clip-path="url(#p036f1513bb)" style="fill: #4ecdc4; opacity: 0.6; stroke: #45b7aa; stroke-width: 1.2; stroke-linejoin: miter"/>
   </g>
   <g id="patch_20">
    <path d="M 220.56064 647.064611 
L 231.420653 647.064611 
L 231.420653 647.064611 
L 220.56064 647.064611 
z
" clip-path="url(#p036f1513bb)" style="fill: #4ecdc4; opacity: 0.6; stroke: #45b7aa; stroke-width: 1.2; stroke-linejoin: miter"/>
   </g>
   <g id="patch_21">
    <path d="M 231.420653 647.064611 
L 242.280693 647.064611 
L 242.280693 647.064611 
L 231.420653 647.064611 
z
" clip-path="url(#p036f1513bb)" style="fill: #4ecdc4; opacity: 0.6; stroke: #45b7aa; stroke-width: 1.2; stroke-linejoin: miter"/>
   </g>
   <g id="patch_22">
    <path d="M 242.280693 647.064611 
L 253.140706 647.064611 
L 253.140706 647.064611 
L 242.280693 647.064611 
z
" clip-path="url(#p036f1513bb)" style="fill: #4ecdc4; opacity: 0.6; stroke: #45b7aa; stroke-width: 1.2; stroke-linejoin: miter"/>
   </g>
   <g id="patch_23">
    <path d="M 253.140706 647.064611 
L 264.000733 647.064611 
L 264.000733 647.064611 
L 253.140706 647.064611 
z
" clip-path="url(#p036f1513bb)" style="fill: #4ecdc4; opacity: 0.6; stroke: #45b7aa; stroke-width: 1.2; stroke-linejoin: miter"/>
   </g>
   <g id="patch_24">
    <path d="M 264.000733 647.064611 
L 274.860759 647.064611 
L 274.860759 647.064611 
L 264.000733 647.064611 
z
" clip-path="url(#p036f1513bb)" style="fill: #4ecdc4; opacity: 0.6; stroke: #45b7aa; stroke-width: 1.2; stroke-linejoin: miter"/>
   </g>
   <g id="patch_25">
    <path d="M 274.860759 647.064611 
L 285.720773 647.064611 
L 285.720773 647.064611 
L 274.860759 647.064611 
z
" clip-path="url(#p036f1513bb)" style="fill: #4ecdc4; opacity: 0.6; stroke: #45b7aa; stroke-width: 1.2; stroke-linejoin: miter"/>
   </g>
   <g id="patch_26">
    <path d="M 285.720773 647.064611 
L 296.5808 647.064611 
L 296.5808 647.064611 
L 285.720773 647.064611 
z
" clip-path="url(#p036f1513bb)" style="fill: #4ecdc4; opacity: 0.6; stroke: #45b7aa; stroke-width: 1.2; stroke-linejoin: miter"/>
   </g>
   <g id="patch_27">
    <path d="M 296.5808 647.064611 
L 307.440826 647.064611 
L 307.440826 647.064611 
L 296.5808 647.064611 
z
" clip-path="url(#p036f1513bb)" style="fill: #4ecdc4; opacity: 0.6; stroke: #45b7aa; stroke-width: 1.2; stroke-linejoin: miter"/>
   </g>
   <g id="patch_28">
    <path d="M 307.440826 647.064611 
L 318.300853 647.064611 
L 318.300853 647.064611 
L 307.440826 647.064611 
z
" clip-path="url(#p036f1513bb)" style="fill: #4ecdc4; opacity: 0.6; stroke: #45b7aa; stroke-width: 1.2; stroke-linejoin: miter"/>
   </g>
   <g id="patch_29">
    <path d="M 318.300853 647.064611 
L 329.160879 647.064611 
L 329.160879 647.064611 
L 318.300853 647.064611 
z
" clip-path="url(#p036f1513bb)" style="fill: #4ecdc4; opacity: 0.6; stroke: #45b7aa; stroke-width: 1.2; stroke-linejoin: miter"/>
   </g>
   <g id="patch_30">
    <path d="M 329.160879 647.064611 
L 340.020893 647.064611 
L 340.020893 647.064611 
L 329.160879 647.064611 
z
" clip-path="url(#p036f1513bb)" style="fill: #4ecdc4; opacity: 0.6; stroke: #45b7aa; stroke-width: 1.2; stroke-linejoin: miter"/>
   </g>
   <g id="patch_31">
    <path d="M 340.020893 647.064611 
L 350.880919 647.064611 
L 350.880919 647.064611 
L 340.020893 647.064611 
z
" clip-path="url(#p036f1513bb)" style="fill: #4ecdc4; opacity: 0.6; stroke: #45b7aa; stroke-width: 1.2; stroke-linejoin: miter"/>
   </g>
   <g id="patch_32">
    <path d="M 350.880919 647.064611 
L 361.740946 647.064611 
L 361.740946 647.064611 
L 350.880919 647.064611 
z
" clip-path="url(#p036f1513bb)" style="fill: #4ecdc4; opacity: 0.6; stroke: #45b7aa; stroke-width: 1.2; stroke-linejoin: miter"/>
   </g>
   <g id="patch_33">
    <path d="M 361.740946 647.064611 
L 372.600973 647.064611 
L 372.600973 647.064611 
L 361.740946 647.064611 
z
" clip-path="url(#p036f1513bb)" style="fill: #4ecdc4; opacity: 0.6; stroke: #45b7aa; stroke-width: 1.2; stroke-linejoin: miter"/>
   </g>
   <g id="patch_34">
    <path d="M 372.600973 647.064611 
L 383.460993 647.064611 
L 383.460993 647.064611 
L 372.600973 647.064611 
z
" clip-path="url(#p036f1513bb)" style="fill: #4ecdc4; opacity: 0.6; stroke: #45b7aa; stroke-width: 1.2; stroke-linejoin: miter"/>
   </g>
   <g id="patch_35">
    <path d="M 383.460993 647.064611 
L 394.321019 647.064611 
L 394.321019 647.064611 
L 383.460993 647.064611 
z
" clip-path="url(#p036f1513bb)" style="fill: #4ecdc4; opacity: 0.6; stroke: #45b7aa; stroke-width: 1.2; stroke-linejoin: miter"/>
   </g>
   <g id="patch_36">
    <path d="M 394.321019 647.064611 
L 405.181039 647.064611 
L 405.181039 647.064611 
L 394.321019 647.064611 
z
" clip-path="url(#p036f1513bb)" style="fill: #4ecdc4; opacity: 0.6; stroke: #45b7aa; stroke-width: 1.2; stroke-linejoin: miter"/>
   </g>
   <g id="patch_37">
    <path d="M 405.181039 647.064611 
L 416.041066 647.064611 
L 416.041066 647.064611 
L 405.181039 647.064611 
z
" clip-path="url(#p036f1513bb)" style="fill: #4ecdc4; opacity: 0.6; stroke: #45b7aa; stroke-width: 1.2; stroke-linejoin: miter"/>
   </g>
   <g id="patch_38">
    <path d="M 416.041066 647.064611 
L 426.901089 647.064611 
L 426.901089 646.586609 
L 416.041066 646.586609 
z
" clip-path="url(#p036f1513bb)" style="fill: #4ecdc4; opacity: 0.6; stroke: #45b7aa; stroke-width: 1.2; stroke-linejoin: miter"/>
   </g>
   <g id="patch_39">
    <path d="M 426.901089 647.064611 
L 437.761113 647.064611 
L 437.761113 646.586609 
L 426.901089 646.586609 
z
" clip-path="url(#p036f1513bb)" style="fill: #4ecdc4; opacity: 0.6; stroke: #45b7aa; stroke-width: 1.2; stroke-linejoin: miter"/>
   </g>
   <g id="patch_40">
    <path d="M 437.761113 647.064611 
L 448.621138 647.064611 
L 448.621138 646.108607 
L 437.761113 646.108607 
z
" clip-path="url(#p036f1513bb)" style="fill: #4ecdc4; opacity: 0.6; stroke: #45b7aa; stroke-width: 1.2; stroke-linejoin: miter"/>
   </g>
   <g id="patch_41">
    <path d="M 448.621138 647.064611 
L 459.481162 647.064611 
L 459.481162 645.630605 
L 448.621138 645.630605 
z
" clip-path="url(#p036f1513bb)" style="fill: #4ecdc4; opacity: 0.6; stroke: #45b7aa; stroke-width: 1.2; stroke-linejoin: miter"/>
   </g>
   <g id="patch_42">
    <path d="M 459.481162 647.064611 
L 470.341186 647.064611 
L 470.341186 643.718598 
L 459.481162 643.718598 
z
" clip-path="url(#p036f1513bb)" style="fill: #4ecdc4; opacity: 0.6; stroke: #45b7aa; stroke-width: 1.2; stroke-linejoin: miter"/>
   </g>
   <g id="patch_43">
    <path d="M 470.341186 647.064611 
L 481.20121 647.064611 
L 481.20121 637.504575 
L 470.341186 637.504575 
z
" clip-path="url(#p036f1513bb)" style="fill: #4ecdc4; opacity: 0.6; stroke: #45b7aa; stroke-width: 1.2; stroke-linejoin: miter"/>
   </g>
   <g id="patch_44">
    <path d="M 481.20121 647.064611 
L 492.061234 647.064611 
L 492.061234 631.768554 
L 481.20121 631.768554 
z
" clip-path="url(#p036f1513bb)" style="fill: #4ecdc4; opacity: 0.6; stroke: #45b7aa; stroke-width: 1.2; stroke-linejoin: miter"/>
   </g>
   <g id="patch_45">
    <path d="M 492.061234 647.064611 
L 502.921259 647.064611 
L 502.921259 631.290554 
L 492.061234 631.290554 
z
" clip-path="url(#p036f1513bb)" style="fill: #4ecdc4; opacity: 0.6; stroke: #45b7aa; stroke-width: 1.2; stroke-linejoin: miter"/>
   </g>
   <g id="patch_46">
    <path d="M 502.921259 647.064611 
L 513.781282 647.064611 
L 513.781282 620.774512 
L 502.921259 620.774512 
z
" clip-path="url(#p036f1513bb)" style="fill: #4ecdc4; opacity: 0.6; stroke: #45b7aa; stroke-width: 1.2; stroke-linejoin: miter"/>
   </g>
   <g id="patch_47">
    <path d="M 513.781282 647.064611 
L 524.641306 647.064611 
L 524.641306 609.78047 
L 513.781282 609.78047 
z
" clip-path="url(#p036f1513bb)" style="fill: #4ecdc4; opacity: 0.6; stroke: #45b7aa; stroke-width: 1.2; stroke-linejoin: miter"/>
   </g>
   <g id="patch_48">
    <path d="M 524.641306 647.064611 
L 535.501332 647.064611 
L 535.501332 598.786443 
L 524.641306 598.786443 
z
" clip-path="url(#p036f1513bb)" style="fill: #4ecdc4; opacity: 0.6; stroke: #45b7aa; stroke-width: 1.2; stroke-linejoin: miter"/>
   </g>
   <g id="patch_49">
    <path d="M 535.501332 647.064611 
L 546.361352 647.064611 
L 546.361352 584.446356 
L 535.501332 584.446356 
z
" clip-path="url(#p036f1513bb)" style="fill: #4ecdc4; opacity: 0.6; stroke: #45b7aa; stroke-width: 1.2; stroke-linejoin: miter"/>
   </g>
   <g id="patch_50">
    <path d="M 546.361352 647.064611 
L 557.221379 647.064611 
L 557.221379 559.590307 
L 546.361352 559.590307 
z
" clip-path="url(#p036f1513bb)" style="fill: #4ecdc4; opacity: 0.6; stroke: #45b7aa; stroke-width: 1.2; stroke-linejoin: miter"/>
   </g>
   <g id="patch_51">
    <path d="M 557.221379 647.064611 
L 568.081399 647.064611 
L 568.081399 547.162204 
L 557.221379 547.162204 
z
" clip-path="url(#p036f1513bb)" style="fill: #4ecdc4; opacity: 0.6; stroke: #45b7aa; stroke-width: 1.2; stroke-linejoin: miter"/>
   </g>
   <g id="patch_52">
    <path d="M 568.081399 647.064611 
L 578.941426 647.064611 
L 578.941426 499.8401 
L 568.081399 499.8401 
z
" clip-path="url(#p036f1513bb)" style="fill: #4ecdc4; opacity: 0.6; stroke: #45b7aa; stroke-width: 1.2; stroke-linejoin: miter"/>
   </g>
   <g id="patch_53">
    <path d="M 578.941426 647.064611 
L 589.801452 647.064611 
L 589.801452 476.89602 
L 578.941426 476.89602 
z
" clip-path="url(#p036f1513bb)" style="fill: #4ecdc4; opacity: 0.6; stroke: #45b7aa; stroke-width: 1.2; stroke-linejoin: miter"/>
   </g>
   <g id="patch_54">
    <path d="M 589.801452 647.064611 
L 600.661479 647.064611 
L 600.661479 411.887795 
L 589.801452 411.887795 
z
" clip-path="url(#p036f1513bb)" style="fill: #4ecdc4; opacity: 0.6; stroke: #45b7aa; stroke-width: 1.2; stroke-linejoin: miter"/>
   </g>
   <g id="patch_55">
    <path d="M 600.661479 647.064611 
L 611.521492 647.064611 
L 611.521492 379.383363 
L 600.661479 379.383363 
z
" clip-path="url(#p036f1513bb)" style="fill: #4ecdc4; opacity: 0.6; stroke: #45b7aa; stroke-width: 1.2; stroke-linejoin: miter"/>
   </g>
   <g id="patch_56">
    <path d="M 611.521492 647.064611 
L 622.381519 647.064611 
L 622.381519 305.771426 
L 611.521492 305.771426 
z
" clip-path="url(#p036f1513bb)" style="fill: #4ecdc4; opacity: 0.6; stroke: #45b7aa; stroke-width: 1.2; stroke-linejoin: miter"/>
   </g>
   <g id="patch_57">
    <path d="M 622.381519 647.064611 
L 633.241545 647.064611 
L 633.241545 246.499221 
L 622.381519 246.499221 
z
" clip-path="url(#p036f1513bb)" style="fill: #4ecdc4; opacity: 0.6; stroke: #45b7aa; stroke-width: 1.2; stroke-linejoin: miter"/>
   </g>
   <g id="patch_58">
    <path d="M 633.241545 647.064611 
L 644.101572 647.064611 
L 644.101572 197.26505 
L 633.241545 197.26505 
z
" clip-path="url(#p036f1513bb)" style="fill: #4ecdc4; opacity: 0.6; stroke: #45b7aa; stroke-width: 1.2; stroke-linejoin: miter"/>
   </g>
   <g id="patch_59">
    <path d="M 644.101572 647.064611 
L 654.961599 647.064611 
L 654.961599 148.508881 
L 644.101572 148.508881 
z
" clip-path="url(#p036f1513bb)" style="fill: #4ecdc4; opacity: 0.6; stroke: #45b7aa; stroke-width: 1.2; stroke-linejoin: miter"/>
   </g>
   <g id="patch_60">
    <path d="M 654.961599 647.064611 
L 665.821612 647.064611 
L 665.821612 145.162271 
L 654.961599 145.162271 
z
" clip-path="url(#p036f1513bb)" style="fill: #4ecdc4; opacity: 0.6; stroke: #45b7aa; stroke-width: 1.2; stroke-linejoin: miter"/>
   </g>
   <g id="patch_61">
    <path d="M 665.821612 647.064611 
L 676.681639 647.064611 
L 676.681639 85.412662 
L 665.821612 85.412662 
z
" clip-path="url(#p036f1513bb)" style="fill: #4ecdc4; opacity: 0.6; stroke: #45b7aa; stroke-width: 1.2; stroke-linejoin: miter"/>
   </g>
   <g id="patch_62">
    <path d="M 676.681639 647.064611 
L 687.541665 647.064611 
L 687.541665 66.292595 
L 676.681639 66.292595 
z
" clip-path="url(#p036f1513bb)" style="fill: #4ecdc4; opacity: 0.6; stroke: #45b7aa; stroke-width: 1.2; stroke-linejoin: miter"/>
   </g>
   <g id="patch_63">
    <path d="M 687.541665 647.064611 
L 698.401679 647.064611 
L 698.401679 135.124224 
L 687.541665 135.124224 
z
" clip-path="url(#p036f1513bb)" style="fill: #4ecdc4; opacity: 0.6; stroke: #45b7aa; stroke-width: 1.2; stroke-linejoin: miter"/>
   </g>
   <g id="patch_64">
    <path d="M 698.401679 647.064611 
L 709.261718 647.064611 
L 709.261718 200.133593 
L 698.401679 200.133593 
z
" clip-path="url(#p036f1513bb)" style="fill: #4ecdc4; opacity: 0.6; stroke: #45b7aa; stroke-width: 1.2; stroke-linejoin: miter"/>
   </g>
   <g id="patch_65">
    <path d="M 709.261718 647.064611 
L 720.121732 647.064611 
L 720.121732 311.985049 
L 709.261718 311.985049 
z
" clip-path="url(#p036f1513bb)" style="fill: #4ecdc4; opacity: 0.6; stroke: #45b7aa; stroke-width: 1.2; stroke-linejoin: miter"/>
   </g>
   <g id="patch_66">
    <path d="M 720.121732 647.064611 
L 730.981772 647.064611 
L 730.981772 389.900025 
L 720.121732 389.900025 
z
" clip-path="url(#p036f1513bb)" style="fill: #4ecdc4; opacity: 0.6; stroke: #45b7aa; stroke-width: 1.2; stroke-linejoin: miter"/>
   </g>
   <g id="patch_67">
    <path d="M 730.981772 647.064611 
L 741.841785 647.064611 
L 741.841785 485.97786 
L 730.981772 485.97786 
z
" clip-path="url(#p036f1513bb)" style="fill: #4ecdc4; opacity: 0.6; stroke: #45b7aa; stroke-width: 1.2; stroke-linejoin: miter"/>
   </g>
   <g id="patch_68">
    <path d="M 741.841785 647.064611 
L 752.701799 647.064611 
L 752.701799 574.886274 
L 741.841785 574.886274 
z
" clip-path="url(#p036f1513bb)" style="fill: #4ecdc4; opacity: 0.6; stroke: #45b7aa; stroke-width: 1.2; stroke-linejoin: miter"/>
   </g>
   <g id="patch_69">
    <path d="M 752.701799 647.064611 
L 763.561838 647.064611 
L 763.561838 615.99454 
L 752.701799 615.99454 
z
" clip-path="url(#p036f1513bb)" style="fill: #4ecdc4; opacity: 0.6; stroke: #45b7aa; stroke-width: 1.2; stroke-linejoin: miter"/>
   </g>
   <g id="patch_70">
    <path d="M 763.561838 647.064611 
L 774.421852 647.064611 
L 774.421852 642.284588 
L 763.561838 642.284588 
z
" clip-path="url(#p036f1513bb)" style="fill: #4ecdc4; opacity: 0.6; stroke: #45b7aa; stroke-width: 1.2; stroke-linejoin: miter"/>
   </g>
   <g id="patch_71">
    <path d="M 774.421852 647.064611 
L 785.281891 647.064611 
L 785.281891 646.108608 
L 774.421852 646.108608 
z
" clip-path="url(#p036f1513bb)" style="fill: #4ecdc4; opacity: 0.6; stroke: #45b7aa; stroke-width: 1.2; stroke-linejoin: miter"/>
   </g>
   <g id="patch_72">
    <path d="M 785.281891 647.064611 
L 796.141905 647.064611 
L 796.141905 647.064611 
L 785.281891 647.064611 
z
" clip-path="url(#p036f1513bb)" style="fill: #4ecdc4; opacity: 0.6; stroke: #45b7aa; stroke-width: 1.2; stroke-linejoin: miter"/>
   </g>
   <g id="patch_73">
    <path d="M 796.141905 647.064611 
L 807.001919 647.064611 
L 807.001919 647.064611 
L 796.141905 647.064611 
z
" clip-path="url(#p036f1513bb)" style="fill: #4ecdc4; opacity: 0.6; stroke: #45b7aa; stroke-width: 1.2; stroke-linejoin: miter"/>
   </g>
   <g id="patch_74">
    <path d="M 807.001919 647.064611 
L 817.861958 647.064611 
L 817.861958 647.064611 
L 807.001919 647.064611 
z
" clip-path="url(#p036f1513bb)" style="fill: #4ecdc4; opacity: 0.6; stroke: #45b7aa; stroke-width: 1.2; stroke-linejoin: miter"/>
   </g>
   <g id="patch_75">
    <path d="M 817.861958 647.064611 
L 828.721972 647.064611 
L 828.721972 647.064611 
L 817.861958 647.064611 
z
" clip-path="url(#p036f1513bb)" style="fill: #4ecdc4; opacity: 0.6; stroke: #45b7aa; stroke-width: 1.2; stroke-linejoin: miter"/>
   </g>
   <g id="patch_76">
    <path d="M 828.721972 647.064611 
L 839.582011 647.064611 
L 839.582011 647.064611 
L 828.721972 647.064611 
z
" clip-path="url(#p036f1513bb)" style="fill: #4ecdc4; opacity: 0.6; stroke: #45b7aa; stroke-width: 1.2; stroke-linejoin: miter"/>
   </g>
   <g id="patch_77">
    <path d="M 839.582011 647.064611 
L 850.442025 647.064611 
L 850.442025 647.064611 
L 839.582011 647.064611 
z
" clip-path="url(#p036f1513bb)" style="fill: #4ecdc4; opacity: 0.6; stroke: #45b7aa; stroke-width: 1.2; stroke-linejoin: miter"/>
   </g>
   <g id="patch_78">
    <path d="M 850.442025 647.064611 
L 861.302039 647.064611 
L 861.302039 647.064611 
L 850.442025 647.064611 
z
" clip-path="url(#p036f1513bb)" style="fill: #4ecdc4; opacity: 0.6; stroke: #45b7aa; stroke-width: 1.2; stroke-linejoin: miter"/>
   </g>
   <g id="patch_79">
    <path d="M 861.302039 647.064611 
L 872.162078 647.064611 
L 872.162078 647.064611 
L 861.302039 647.064611 
z
" clip-path="url(#p036f1513bb)" style="fill: #4ecdc4; opacity: 0.6; stroke: #45b7aa; stroke-width: 1.2; stroke-linejoin: miter"/>
   </g>
   <g id="patch_80">
    <path d="M 872.162078 647.064611 
L 883.022092 647.064611 
L 883.022092 647.064611 
L 872.162078 647.064611 
z
" clip-path="url(#p036f1513bb)" style="fill: #4ecdc4; opacity: 0.6; stroke: #45b7aa; stroke-width: 1.2; stroke-linejoin: miter"/>
   </g>
   <g id="patch_81">
    <path d="M 883.022092 647.064611 
L 893.882131 647.064611 
L 893.882131 647.064611 
L 883.022092 647.064611 
z
" clip-path="url(#p036f1513bb)" style="fill: #4ecdc4; opacity: 0.6; stroke: #45b7aa; stroke-width: 1.2; stroke-linejoin: miter"/>
   </g>
   <g id="patch_82">
    <path d="M 893.882131 647.064611 
L 904.742145 647.064611 
L 904.742145 647.064611 
L 893.882131 647.064611 
z
" clip-path="url(#p036f1513bb)" style="fill: #4ecdc4; opacity: 0.6; stroke: #45b7aa; stroke-width: 1.2; stroke-linejoin: miter"/>
   </g>
   <g id="patch_83">
    <path d="M 904.742145 647.064611 
L 915.602158 647.064611 
L 915.602158 647.064611 
L 904.742145 647.064611 
z
" clip-path="url(#p036f1513bb)" style="fill: #4ecdc4; opacity: 0.6; stroke: #45b7aa; stroke-width: 1.2; stroke-linejoin: miter"/>
   </g>
   <g id="patch_84">
    <path d="M 915.602158 647.064611 
L 926.462172 647.064611 
L 926.462172 647.064611 
L 915.602158 647.064611 
z
" clip-path="url(#p036f1513bb)" style="fill: #4ecdc4; opacity: 0.6; stroke: #45b7aa; stroke-width: 1.2; stroke-linejoin: miter"/>
   </g>
   <g id="patch_85">
    <path d="M 926.462172 647.064611 
L 937.322237 647.064611 
L 937.322237 647.064611 
L 926.462172 647.064611 
z
" clip-path="url(#p036f1513bb)" style="fill: #4ecdc4; opacity: 0.6; stroke: #45b7aa; stroke-width: 1.2; stroke-linejoin: miter"/>
   </g>
   <g id="patch_86">
    <path d="M 937.322237 647.064611 
L 948.182251 647.064611 
L 948.182251 647.064611 
L 937.322237 647.064611 
z
" clip-path="url(#p036f1513bb)" style="fill: #4ecdc4; opacity: 0.6; stroke: #45b7aa; stroke-width: 1.2; stroke-linejoin: miter"/>
   </g>
   <g id="patch_87">
    <path d="M 948.182251 647.064611 
L 959.042265 647.064611 
L 959.042265 647.064611 
L 948.182251 647.064611 
z
" clip-path="url(#p036f1513bb)" style="fill: #4ecdc4; opacity: 0.6; stroke: #45b7aa; stroke-width: 1.2; stroke-linejoin: miter"/>
   </g>
   <g id="patch_88">
    <path d="M 959.042265 647.064611 
L 969.902278 647.064611 
L 969.902278 647.064611 
L 959.042265 647.064611 
z
" clip-path="url(#p036f1513bb)" style="fill: #4ecdc4; opacity: 0.6; stroke: #45b7aa; stroke-width: 1.2; stroke-linejoin: miter"/>
   </g>
   <g id="patch_89">
    <path d="M 969.902278 647.064611 
L 980.762292 647.064611 
L 980.762292 647.064611 
L 969.902278 647.064611 
z
" clip-path="url(#p036f1513bb)" style="fill: #4ecdc4; opacity: 0.6; stroke: #45b7aa; stroke-width: 1.2; stroke-linejoin: miter"/>
   </g>
   <g id="patch_90">
    <path d="M 980.762292 647.064611 
L 991.622357 647.064611 
L 991.622357 647.064611 
L 980.762292 647.064611 
z
" clip-path="url(#p036f1513bb)" style="fill: #4ecdc4; opacity: 0.6; stroke: #45b7aa; stroke-width: 1.2; stroke-linejoin: miter"/>
   </g>
   <g id="patch_91">
    <path d="M 991.622357 647.064611 
L 1002.482371 647.064611 
L 1002.482371 647.064611 
L 991.622357 647.064611 
z
" clip-path="url(#p036f1513bb)" style="fill: #4ecdc4; opacity: 0.6; stroke: #45b7aa; stroke-width: 1.2; stroke-linejoin: miter"/>
   </g>
   <g id="patch_92">
    <path d="M 1002.482371 647.064611 
L 1013.342385 647.064611 
L 1013.342385 647.064611 
L 1002.482371 647.064611 
z
" clip-path="url(#p036f1513bb)" style="fill: #4ecdc4; opacity: 0.6; stroke: #45b7aa; stroke-width: 1.2; stroke-linejoin: miter"/>
   </g>
   <g id="patch_93">
    <path d="M 1013.342385 647.064611 
L 1024.202398 647.064611 
L 1024.202398 647.064611 
L 1013.342385 647.064611 
z
" clip-path="url(#p036f1513bb)" style="fill: #4ecdc4; opacity: 0.6; stroke: #45b7aa; stroke-width: 1.2; stroke-linejoin: miter"/>
   </g>
   <g id="patch_94">
    <path d="M 1024.202398 647.064611 
L 1035.062412 647.064611 
L 1035.062412 647.064611 
L 1024.202398 647.064611 
z
" clip-path="url(#p036f1513bb)" style="fill: #4ecdc4; opacity: 0.6; stroke: #45b7aa; stroke-width: 1.2; stroke-linejoin: miter"/>
   </g>
   <g id="patch_95">
    <path d="M 1035.062412 647.064611 
L 1045.922477 647.064611 
L 1045.922477 647.064611 
L 1035.062412 647.064611 
z
" clip-path="url(#p036f1513bb)" style="fill: #4ecdc4; opacity: 0.6; stroke: #45b7aa; stroke-width: 1.2; stroke-linejoin: miter"/>
   </g>
   <g id="patch_96">
    <path d="M 1045.922477 647.064611 
L 1056.782491 647.064611 
L 1056.782491 647.064611 
L 1045.922477 647.064611 
z
" clip-path="url(#p036f1513bb)" style="fill: #4ecdc4; opacity: 0.6; stroke: #45b7aa; stroke-width: 1.2; stroke-linejoin: miter"/>
   </g>
   <g id="patch_97">
    <path d="M 1056.782491 647.064611 
L 1067.642504 647.064611 
L 1067.642504 647.064611 
L 1056.782491 647.064611 
z
" clip-path="url(#p036f1513bb)" style="fill: #4ecdc4; opacity: 0.6; stroke: #45b7aa; stroke-width: 1.2; stroke-linejoin: miter"/>
   </g>
   <g id="patch_98">
    <path d="M 1067.642504 647.064611 
L 1078.502518 647.064611 
L 1078.502518 647.064611 
L 1067.642504 647.064611 
z
" clip-path="url(#p036f1513bb)" style="fill: #4ecdc4; opacity: 0.6; stroke: #45b7aa; stroke-width: 1.2; stroke-linejoin: miter"/>
   </g>
   <g id="patch_99">
    <path d="M 1078.502518 647.064611 
L 1089.362532 647.064611 
L 1089.362532 647.064611 
L 1078.502518 647.064611 
z
" clip-path="url(#p036f1513bb)" style="fill: #4ecdc4; opacity: 0.6; stroke: #45b7aa; stroke-width: 1.2; stroke-linejoin: miter"/>
   </g>
   <g id="patch_100">
    <path d="M 1089.362532 647.064611 
L 1100.222597 647.064611 
L 1100.222597 647.064611 
L 1089.362532 647.064611 
z
" clip-path="url(#p036f1513bb)" style="fill: #4ecdc4; opacity: 0.6; stroke: #45b7aa; stroke-width: 1.2; stroke-linejoin: miter"/>
   </g>
   <g id="patch_101">
    <path d="M 1100.222597 647.064611 
L 1111.082611 647.064611 
L 1111.082611 647.064611 
L 1100.222597 647.064611 
z
" clip-path="url(#p036f1513bb)" style="fill: #4ecdc4; opacity: 0.6; stroke: #45b7aa; stroke-width: 1.2; stroke-linejoin: miter"/>
   </g>
   <g id="patch_102">
    <path d="M 1111.082611 647.064611 
L 1121.942624 647.064611 
L 1121.942624 647.064611 
L 1111.082611 647.064611 
z
" clip-path="url(#p036f1513bb)" style="fill: #4ecdc4; opacity: 0.6; stroke: #45b7aa; stroke-width: 1.2; stroke-linejoin: miter"/>
   </g>
   <g id="matplotlib.axis_1">
    <g id="xtick_1">
     <g id="line2d_1">
      <path d="M 35.940227 647.064611 
L 35.940227 37.253995 
" clip-path="url(#p036f1513bb)" style="fill: none; stroke: #e0e0e0; stroke-opacity: 0.3; stroke-width: 0.5; stroke-linecap: square"/>
     </g>
     <g id="line2d_2">
      <defs>
       <path id="me113ae9857" d="M 0 0 
L 0 -3 
" style="stroke: #000000; stroke-width: 0.5"/>
      </defs>
      <g>
       <use xlink:href="#me113ae9857" x="35.940227" y="647.064611" style="stroke: #000000; stroke-width: 0.5"/>
      </g>
     </g>
     <g id="line2d_3">
      <defs>
       <path id="m7f0d7fb647" d="M 0 0 
L 0 3 
" style="stroke: #000000; stroke-width: 0.5"/>
      </defs>
      <g>
       <use xlink:href="#m7f0d7fb647" x="35.940227" y="37.253995" style="stroke: #000000; stroke-width: 0.5"/>
      </g>
     </g>
     <g id="text_1">
      <!-- $\mathdefault{−1.0}$ -->
      <g transform="translate(12.424354 667.169016) scale(0.24 -0.24)">
       <defs>
        <path id="CMSY10-0" d="M 4218 1472 
C 4326 1472 4442 1472 4442 1600 
C 4442 1728 4326 1728 4218 1728 
L 755 1728 
C 646 1728 531 1728 531 1600 
C 531 1472 646 1472 755 1472 
L 4218 1472 
z
" transform="scale(0.015625)"/>
        <path id="CMR17-31" d="M 1702 4058 
C 1702 4192 1696 4192 1606 4192 
C 1357 3916 979 3827 621 3827 
C 602 3827 570 3827 563 3808 
C 557 3795 557 3782 557 3648 
C 755 3648 1088 3686 1344 3839 
L 1344 461 
C 1344 236 1331 160 781 160 
L 589 160 
L 589 0 
C 896 0 1216 0 1523 0 
C 1830 0 2150 0 2458 0 
L 2458 160 
L 2266 160 
C 1715 160 1702 230 1702 458 
L 1702 4058 
z
" transform="scale(0.015625)"/>
        <path id="CMMI12-3a" d="M 1178 307 
C 1178 492 1024 619 870 619 
C 685 619 557 466 557 313 
C 557 128 710 0 864 0 
C 1050 0 1178 153 1178 307 
z
" transform="scale(0.015625)"/>
        <path id="CMR17-30" d="M 2688 2025 
C 2688 2416 2682 3080 2413 3591 
C 2176 4039 1798 4198 1466 4198 
C 1158 4198 768 4058 525 3597 
C 269 3118 243 2524 243 2025 
C 243 1661 250 1106 448 619 
C 723 -39 1216 -128 1466 -128 
C 1760 -128 2208 -7 2470 600 
C 2662 1042 2688 1559 2688 2025 
z
M 1466 -26 
C 1056 -26 813 325 723 812 
C 653 1188 653 1738 653 2096 
C 653 2588 653 2997 736 3387 
C 858 3929 1216 4096 1466 4096 
C 1728 4096 2067 3923 2189 3400 
C 2272 3036 2278 2607 2278 2096 
C 2278 1680 2278 1169 2202 792 
C 2067 95 1690 -26 1466 -26 
z
" transform="scale(0.015625)"/>
       </defs>
       <use xlink:href="#CMSY10-0" transform="scale(0.996264)"/>
       <use xlink:href="#CMR17-31" transform="translate(77.487468 0) scale(0.996264)"/>
       <use xlink:href="#CMMI12-3a" transform="translate(123.177945 0) scale(0.996264)"/>
       <use xlink:href="#CMR17-30" transform="translate(150.275122 0) scale(0.996264)"/>
      </g>
     </g>
    </g>
    <g id="xtick_2">
     <g id="line2d_4">
      <path d="M 253.140706 647.064611 
L 253.140706 37.253995 
" clip-path="url(#p036f1513bb)" style="fill: none; stroke: #e0e0e0; stroke-opacity: 0.3; stroke-width: 0.5; stroke-linecap: square"/>
     </g>
     <g id="line2d_5">
      <g>
       <use xlink:href="#me113ae9857" x="253.140706" y="647.064611" style="stroke: #000000; stroke-width: 0.5"/>
      </g>
     </g>
     <g id="line2d_6">
      <g>
       <use xlink:href="#m7f0d7fb647" x="253.140706" y="37.253995" style="stroke: #000000; stroke-width: 0.5"/>
      </g>
     </g>
     <g id="text_2">
      <!-- $\mathdefault{−0.5}$ -->
      <g transform="translate(229.624834 667.169016) scale(0.24 -0.24)">
       <defs>
        <path id="CMR17-35" d="M 730 3692 
C 794 3666 1056 3584 1325 3584 
C 1920 3584 2246 3911 2432 4100 
C 2432 4157 2432 4192 2394 4192 
C 2387 4192 2374 4192 2323 4163 
C 2099 4058 1837 3973 1517 3973 
C 1325 3973 1037 3999 723 4139 
C 653 4171 640 4171 634 4171 
C 602 4171 595 4164 595 4037 
L 595 2203 
C 595 2089 595 2057 659 2057 
C 691 2057 704 2070 736 2114 
C 941 2401 1222 2522 1542 2522 
C 1766 2522 2246 2382 2246 1289 
C 2246 1085 2246 715 2054 421 
C 1894 159 1645 25 1370 25 
C 947 25 518 320 403 814 
C 429 807 480 795 506 795 
C 589 795 749 840 749 1038 
C 749 1210 627 1280 506 1280 
C 358 1280 262 1190 262 1011 
C 262 454 704 -128 1382 -128 
C 2042 -128 2669 440 2669 1264 
C 2669 2030 2170 2624 1549 2624 
C 1222 2624 947 2503 730 2274 
L 730 3692 
z
" transform="scale(0.015625)"/>
       </defs>
       <use xlink:href="#CMSY10-0" transform="scale(0.996264)"/>
       <use xlink:href="#CMR17-30" transform="translate(77.487468 0) scale(0.996264)"/>
       <use xlink:href="#CMMI12-3a" transform="translate(123.177945 0) scale(0.996264)"/>
       <use xlink:href="#CMR17-35" transform="translate(150.275122 0) scale(0.996264)"/>
      </g>
     </g>
    </g>
    <g id="xtick_3">
     <g id="line2d_7">
      <path d="M 470.341186 647.064611 
L 470.341186 37.253995 
" clip-path="url(#p036f1513bb)" style="fill: none; stroke: #e0e0e0; stroke-opacity: 0.3; stroke-width: 0.5; stroke-linecap: square"/>
     </g>
     <g id="line2d_8">
      <g>
       <use xlink:href="#me113ae9857" x="470.341186" y="647.064611" style="stroke: #000000; stroke-width: 0.5"/>
      </g>
     </g>
     <g id="line2d_9">
      <g>
       <use xlink:href="#m7f0d7fb647" x="470.341186" y="37.253995" style="stroke: #000000; stroke-width: 0.5"/>
      </g>
     </g>
     <g id="text_3">
      <!-- $\mathdefault{0.0}$ -->
      <g transform="translate(456.12381 667.169016) scale(0.24 -0.24)">
       <use xlink:href="#CMR17-30" transform="scale(0.996264)"/>
       <use xlink:href="#CMMI12-3a" transform="translate(45.690477 0) scale(0.996264)"/>
       <use xlink:href="#CMR17-30" transform="translate(72.787654 0) scale(0.996264)"/>
      </g>
     </g>
    </g>
    <g id="xtick_4">
     <g id="line2d_10">
      <path d="M 687.541665 647.064611 
L 687.541665 37.253995 
" clip-path="url(#p036f1513bb)" style="fill: none; stroke: #e0e0e0; stroke-opacity: 0.3; stroke-width: 0.5; stroke-linecap: square"/>
     </g>
     <g id="line2d_11">
      <g>
       <use xlink:href="#me113ae9857" x="687.541665" y="647.064611" style="stroke: #000000; stroke-width: 0.5"/>
      </g>
     </g>
     <g id="line2d_12">
      <g>
       <use xlink:href="#m7f0d7fb647" x="687.541665" y="37.253995" style="stroke: #000000; stroke-width: 0.5"/>
      </g>
     </g>
     <g id="text_4">
      <!-- $\mathdefault{0.5}$ -->
      <g transform="translate(673.32429 667.169016) scale(0.24 -0.24)">
       <use xlink:href="#CMR17-30" transform="scale(0.996264)"/>
       <use xlink:href="#CMMI12-3a" transform="translate(45.690477 0) scale(0.996264)"/>
       <use xlink:href="#CMR17-35" transform="translate(72.787654 0) scale(0.996264)"/>
      </g>
     </g>
    </g>
    <g id="xtick_5">
     <g id="line2d_13">
      <path d="M 904.742145 647.064611 
L 904.742145 37.253995 
" clip-path="url(#p036f1513bb)" style="fill: none; stroke: #e0e0e0; stroke-opacity: 0.3; stroke-width: 0.5; stroke-linecap: square"/>
     </g>
     <g id="line2d_14">
      <g>
       <use xlink:href="#me113ae9857" x="904.742145" y="647.064611" style="stroke: #000000; stroke-width: 0.5"/>
      </g>
     </g>
     <g id="line2d_15">
      <g>
       <use xlink:href="#m7f0d7fb647" x="904.742145" y="37.253995" style="stroke: #000000; stroke-width: 0.5"/>
      </g>
     </g>
     <g id="text_5">
      <!-- $\mathdefault{1.0}$ -->
      <g transform="translate(890.524769 667.169016) scale(0.24 -0.24)">
       <use xlink:href="#CMR17-31" transform="scale(0.996264)"/>
       <use xlink:href="#CMMI12-3a" transform="translate(45.690477 0) scale(0.996264)"/>
       <use xlink:href="#CMR17-30" transform="translate(72.787654 0) scale(0.996264)"/>
      </g>
     </g>
    </g>
    <g id="xtick_6">
     <g id="line2d_16">
      <path d="M 1121.942624 647.064611 
L 1121.942624 37.253995 
" clip-path="url(#p036f1513bb)" style="fill: none; stroke: #e0e0e0; stroke-opacity: 0.3; stroke-width: 0.5; stroke-linecap: square"/>
     </g>
     <g id="line2d_17">
      <g>
       <use xlink:href="#me113ae9857" x="1121.942624" y="647.064611" style="stroke: #000000; stroke-width: 0.5"/>
      </g>
     </g>
     <g id="line2d_18">
      <g>
       <use xlink:href="#m7f0d7fb647" x="1121.942624" y="37.253995" style="stroke: #000000; stroke-width: 0.5"/>
      </g>
     </g>
     <g id="text_6">
      <!-- $\mathdefault{1.5}$ -->
      <g transform="translate(1107.725248 667.169016) scale(0.24 -0.24)">
       <use xlink:href="#CMR17-31" transform="scale(0.996264)"/>
       <use xlink:href="#CMMI12-3a" transform="translate(45.690477 0) scale(0.996264)"/>
       <use xlink:href="#CMR17-35" transform="translate(72.787654 0) scale(0.996264)"/>
      </g>
     </g>
    </g>
    <g id="xtick_7">
     <g id="line2d_19">
      <defs>
       <path id="me8a09ee4c1" d="M 0 0 
L 0 -1.5 
" style="stroke: #000000; stroke-width: 0.5"/>
      </defs>
      <g>
       <use xlink:href="#me8a09ee4c1" x="79.380323" y="647.064611" style="stroke: #000000; stroke-width: 0.5"/>
      </g>
     </g>
     <g id="line2d_20">
      <defs>
       <path id="mc3b2cd5c04" d="M 0 0 
L 0 1.5 
" style="stroke: #000000; stroke-width: 0.5"/>
      </defs>
      <g>
       <use xlink:href="#mc3b2cd5c04" x="79.380323" y="37.253995" style="stroke: #000000; stroke-width: 0.5"/>
      </g>
     </g>
    </g>
    <g id="xtick_8">
     <g id="line2d_21">
      <g>
       <use xlink:href="#me8a09ee4c1" x="122.820419" y="647.064611" style="stroke: #000000; stroke-width: 0.5"/>
      </g>
     </g>
     <g id="line2d_22">
      <g>
       <use xlink:href="#mc3b2cd5c04" x="122.820419" y="37.253995" style="stroke: #000000; stroke-width: 0.5"/>
      </g>
     </g>
    </g>
    <g id="xtick_9">
     <g id="line2d_23">
      <g>
       <use xlink:href="#me8a09ee4c1" x="166.260515" y="647.064611" style="stroke: #000000; stroke-width: 0.5"/>
      </g>
     </g>
     <g id="line2d_24">
      <g>
       <use xlink:href="#mc3b2cd5c04" x="166.260515" y="37.253995" style="stroke: #000000; stroke-width: 0.5"/>
      </g>
     </g>
    </g>
    <g id="xtick_10">
     <g id="line2d_25">
      <g>
       <use xlink:href="#me8a09ee4c1" x="209.70061" y="647.064611" style="stroke: #000000; stroke-width: 0.5"/>
      </g>
     </g>
     <g id="line2d_26">
      <g>
       <use xlink:href="#mc3b2cd5c04" x="209.70061" y="37.253995" style="stroke: #000000; stroke-width: 0.5"/>
      </g>
     </g>
    </g>
    <g id="xtick_11">
     <g id="line2d_27">
      <g>
       <use xlink:href="#me8a09ee4c1" x="296.580802" y="647.064611" style="stroke: #000000; stroke-width: 0.5"/>
      </g>
     </g>
     <g id="line2d_28">
      <g>
       <use xlink:href="#mc3b2cd5c04" x="296.580802" y="37.253995" style="stroke: #000000; stroke-width: 0.5"/>
      </g>
     </g>
    </g>
    <g id="xtick_12">
     <g id="line2d_29">
      <g>
       <use xlink:href="#me8a09ee4c1" x="340.020898" y="647.064611" style="stroke: #000000; stroke-width: 0.5"/>
      </g>
     </g>
     <g id="line2d_30">
      <g>
       <use xlink:href="#mc3b2cd5c04" x="340.020898" y="37.253995" style="stroke: #000000; stroke-width: 0.5"/>
      </g>
     </g>
    </g>
    <g id="xtick_13">
     <g id="line2d_31">
      <g>
       <use xlink:href="#me8a09ee4c1" x="383.460994" y="647.064611" style="stroke: #000000; stroke-width: 0.5"/>
      </g>
     </g>
     <g id="line2d_32">
      <g>
       <use xlink:href="#mc3b2cd5c04" x="383.460994" y="37.253995" style="stroke: #000000; stroke-width: 0.5"/>
      </g>
     </g>
    </g>
    <g id="xtick_14">
     <g id="line2d_33">
      <g>
       <use xlink:href="#me8a09ee4c1" x="426.90109" y="647.064611" style="stroke: #000000; stroke-width: 0.5"/>
      </g>
     </g>
     <g id="line2d_34">
      <g>
       <use xlink:href="#mc3b2cd5c04" x="426.90109" y="37.253995" style="stroke: #000000; stroke-width: 0.5"/>
      </g>
     </g>
    </g>
    <g id="xtick_15">
     <g id="line2d_35">
      <g>
       <use xlink:href="#me8a09ee4c1" x="513.781282" y="647.064611" style="stroke: #000000; stroke-width: 0.5"/>
      </g>
     </g>
     <g id="line2d_36">
      <g>
       <use xlink:href="#mc3b2cd5c04" x="513.781282" y="37.253995" style="stroke: #000000; stroke-width: 0.5"/>
      </g>
     </g>
    </g>
    <g id="xtick_16">
     <g id="line2d_37">
      <g>
       <use xlink:href="#me8a09ee4c1" x="557.221378" y="647.064611" style="stroke: #000000; stroke-width: 0.5"/>
      </g>
     </g>
     <g id="line2d_38">
      <g>
       <use xlink:href="#mc3b2cd5c04" x="557.221378" y="37.253995" style="stroke: #000000; stroke-width: 0.5"/>
      </g>
     </g>
    </g>
    <g id="xtick_17">
     <g id="line2d_39">
      <g>
       <use xlink:href="#me8a09ee4c1" x="600.661473" y="647.064611" style="stroke: #000000; stroke-width: 0.5"/>
      </g>
     </g>
     <g id="line2d_40">
      <g>
       <use xlink:href="#mc3b2cd5c04" x="600.661473" y="37.253995" style="stroke: #000000; stroke-width: 0.5"/>
      </g>
     </g>
    </g>
    <g id="xtick_18">
     <g id="line2d_41">
      <g>
       <use xlink:href="#me8a09ee4c1" x="644.101569" y="647.064611" style="stroke: #000000; stroke-width: 0.5"/>
      </g>
     </g>
     <g id="line2d_42">
      <g>
       <use xlink:href="#mc3b2cd5c04" x="644.101569" y="37.253995" style="stroke: #000000; stroke-width: 0.5"/>
      </g>
     </g>
    </g>
    <g id="xtick_19">
     <g id="line2d_43">
      <g>
       <use xlink:href="#me8a09ee4c1" x="730.981761" y="647.064611" style="stroke: #000000; stroke-width: 0.5"/>
      </g>
     </g>
     <g id="line2d_44">
      <g>
       <use xlink:href="#mc3b2cd5c04" x="730.981761" y="37.253995" style="stroke: #000000; stroke-width: 0.5"/>
      </g>
     </g>
    </g>
    <g id="xtick_20">
     <g id="line2d_45">
      <g>
       <use xlink:href="#me8a09ee4c1" x="774.421857" y="647.064611" style="stroke: #000000; stroke-width: 0.5"/>
      </g>
     </g>
     <g id="line2d_46">
      <g>
       <use xlink:href="#mc3b2cd5c04" x="774.421857" y="37.253995" style="stroke: #000000; stroke-width: 0.5"/>
      </g>
     </g>
    </g>
    <g id="xtick_21">
     <g id="line2d_47">
      <g>
       <use xlink:href="#me8a09ee4c1" x="817.861953" y="647.064611" style="stroke: #000000; stroke-width: 0.5"/>
      </g>
     </g>
     <g id="line2d_48">
      <g>
       <use xlink:href="#mc3b2cd5c04" x="817.861953" y="37.253995" style="stroke: #000000; stroke-width: 0.5"/>
      </g>
     </g>
    </g>
    <g id="xtick_22">
     <g id="line2d_49">
      <g>
       <use xlink:href="#me8a09ee4c1" x="861.302049" y="647.064611" style="stroke: #000000; stroke-width: 0.5"/>
      </g>
     </g>
     <g id="line2d_50">
      <g>
       <use xlink:href="#mc3b2cd5c04" x="861.302049" y="37.253995" style="stroke: #000000; stroke-width: 0.5"/>
      </g>
     </g>
    </g>
    <g id="xtick_23">
     <g id="line2d_51">
      <g>
       <use xlink:href="#me8a09ee4c1" x="948.182241" y="647.064611" style="stroke: #000000; stroke-width: 0.5"/>
      </g>
     </g>
     <g id="line2d_52">
      <g>
       <use xlink:href="#mc3b2cd5c04" x="948.182241" y="37.253995" style="stroke: #000000; stroke-width: 0.5"/>
      </g>
     </g>
    </g>
    <g id="xtick_24">
     <g id="line2d_53">
      <g>
       <use xlink:href="#me8a09ee4c1" x="991.622337" y="647.064611" style="stroke: #000000; stroke-width: 0.5"/>
      </g>
     </g>
     <g id="line2d_54">
      <g>
       <use xlink:href="#mc3b2cd5c04" x="991.622337" y="37.253995" style="stroke: #000000; stroke-width: 0.5"/>
      </g>
     </g>
    </g>
    <g id="xtick_25">
     <g id="line2d_55">
      <g>
       <use xlink:href="#me8a09ee4c1" x="1035.062432" y="647.064611" style="stroke: #000000; stroke-width: 0.5"/>
      </g>
     </g>
     <g id="line2d_56">
      <g>
       <use xlink:href="#mc3b2cd5c04" x="1035.062432" y="37.253995" style="stroke: #000000; stroke-width: 0.5"/>
      </g>
     </g>
    </g>
    <g id="xtick_26">
     <g id="line2d_57">
      <g>
       <use xlink:href="#me8a09ee4c1" x="1078.502528" y="647.064611" style="stroke: #000000; stroke-width: 0.5"/>
      </g>
     </g>
     <g id="line2d_58">
      <g>
       <use xlink:href="#mc3b2cd5c04" x="1078.502528" y="37.253995" style="stroke: #000000; stroke-width: 0.5"/>
      </g>
     </g>
    </g>
    <g id="text_7">
     <!-- Similarity -->
     <g style="fill: #2c3e50" transform="translate(516.662748 697.95898) scale(0.32 -0.32)">
      <defs>
       <path id="CMR17-53" d="M 2803 4290 
C 2803 4404 2797 4411 2758 4411 
C 2720 4411 2707 4385 2682 4328 
L 2490 3907 
C 2246 4257 1875 4416 1472 4416 
C 819 4416 294 3901 294 3253 
C 294 3056 339 2776 557 2510 
C 794 2218 1018 2167 1530 2033 
C 1722 1982 2042 1899 2106 1874 
C 2470 1722 2662 1341 2662 985 
C 2662 527 2336 38 1779 38 
C 1094 38 454 419 410 1311 
C 403 1413 397 1419 352 1419 
C 301 1419 294 1413 294 1285 
L 294 -1 
C 294 -115 301 -122 339 -122 
C 384 -122 397 -90 486 108 
C 493 127 493 140 614 381 
C 934 -39 1472 -128 1779 -128 
C 2477 -128 2970 451 2970 1124 
C 2970 1454 2848 1708 2778 1823 
C 2509 2230 2221 2306 1914 2382 
C 1869 2402 1856 2402 1498 2490 
C 1152 2579 1005 2624 845 2796 
C 666 2992 602 3196 602 3399 
C 602 3812 934 4263 1478 4263 
C 2157 4263 2579 3786 2675 2993 
C 2694 2878 2701 2872 2746 2872 
C 2803 2872 2803 2891 2803 2999 
L 2803 4290 
z
" transform="scale(0.015625)"/>
       <path id="CMR17-69" d="M 992 3909 
C 992 4049 877 4170 730 4170 
C 589 4170 467 4056 467 3909 
C 467 3769 582 3648 730 3648 
C 870 3648 992 3763 992 3909 
z
M 243 2706 
L 243 2541 
C 602 2541 653 2502 653 2197 
L 653 427 
C 653 184 627 153 218 153 
L 218 -13 
C 371 0 646 0 806 0 
C 960 0 1222 0 1370 -13 
L 1370 153 
C 992 153 979 191 979 420 
L 979 2776 
L 243 2706 
z
" transform="scale(0.015625)"/>
       <path id="CMR17-6d" d="M 4326 1933 
C 4326 2252 4269 2790 3507 2790 
C 3072 2790 2771 2496 2656 2151 
L 2650 2151 
C 2573 2676 2195 2790 1837 2790 
C 1331 2790 1069 2400 973 2144 
L 966 2144 
L 966 2790 
L 211 2720 
L 211 2554 
C 589 2554 646 2515 646 2208 
L 646 428 
C 646 184 621 153 211 153 
L 211 -13 
C 365 0 646 0 813 0 
C 979 0 1267 0 1421 -13 
L 1421 153 
C 1011 153 986 178 986 428 
L 986 1658 
C 986 2247 1344 2688 1792 2688 
C 2266 2688 2317 2266 2317 1958 
L 2317 428 
C 2317 184 2291 153 1882 153 
L 1882 -13 
C 2035 0 2317 0 2483 0 
C 2650 0 2938 0 3091 -13 
L 3091 153 
C 2682 153 2656 178 2656 428 
L 2656 1658 
C 2656 2247 3014 2688 3462 2688 
C 3936 2688 3987 2266 3987 1958 
L 3987 428 
C 3987 184 3962 153 3552 153 
L 3552 -13 
C 3706 0 3987 0 4154 0 
C 4320 0 4608 0 4762 -13 
L 4762 153 
C 4352 153 4326 178 4326 428 
L 4326 1933 
z
" transform="scale(0.015625)"/>
       <path id="CMR17-6c" d="M 979 4396 
L 218 4326 
L 218 4160 
C 595 4160 653 4122 653 3817 
L 653 426 
C 653 184 627 153 218 153 
L 218 -13 
C 371 0 653 0 813 0 
C 979 0 1261 0 1414 -13 
L 1414 153 
C 1005 153 979 178 979 426 
L 979 4396 
z
" transform="scale(0.015625)"/>
       <path id="CMR17-61" d="M 2304 1653 
C 2304 2072 2304 2294 2035 2543 
C 1798 2752 1523 2816 1306 2816 
C 800 2816 435 2407 435 1971 
C 435 1728 627 1728 666 1728 
C 749 1728 896 1778 896 1954 
C 896 2112 774 2181 666 2181 
C 640 2181 608 2174 589 2168 
C 723 2592 1069 2714 1293 2714 
C 1613 2714 1965 2429 1965 1885 
L 1965 1600 
C 1587 1600 1133 1549 774 1357 
C 371 1133 256 813 256 570 
C 256 77 832 -64 1171 -64 
C 1523 -64 1850 139 1990 511 
C 2003 233 2182 -18 2464 -18 
C 2598 -18 2938 70 2938 567 
L 2938 920 
L 2822 920 
L 2822 562 
C 2822 178 2650 128 2566 128 
C 2304 128 2304 458 2304 738 
L 2304 1653 
z
M 1965 870 
C 1965 317 1568 38 1216 38 
C 896 38 646 275 646 570 
C 646 761 730 1100 1101 1305 
C 1408 1478 1760 1504 1965 1504 
L 1965 870 
z
" transform="scale(0.015625)"/>
       <path id="CMR17-72" d="M 960 1497 
C 960 2112 1222 2688 1702 2688 
C 1747 2688 1792 2682 1837 2662 
C 1837 2662 1696 2617 1696 2452 
C 1696 2298 1818 2234 1914 2234 
C 1990 2234 2131 2279 2131 2458 
C 2131 2663 1926 2790 1709 2790 
C 1222 2790 1011 2317 947 2093 
L 941 2093 
L 941 2790 
L 198 2720 
L 198 2554 
C 576 2554 634 2515 634 2208 
L 634 428 
C 634 184 608 153 198 153 
L 198 -13 
C 352 0 646 0 813 0 
C 998 0 1325 0 1498 -13 
L 1498 153 
C 1037 153 960 153 960 440 
L 960 1497 
z
" transform="scale(0.015625)"/>
       <path id="CMR17-74" d="M 966 2560 
L 1862 2560 
L 1862 2725 
L 966 2725 
L 966 3904 
L 851 3904 
C 838 3245 614 2668 70 2668 
L 70 2560 
L 627 2560 
L 627 771 
C 627 650 627 -64 1370 -64 
C 1747 -64 1965 306 1965 777 
L 1965 1140 
L 1850 1140 
L 1850 783 
C 1850 344 1677 51 1408 51 
C 1222 51 966 178 966 758 
L 966 2560 
z
" transform="scale(0.015625)"/>
       <path id="CMR17-79" d="M 2496 2197 
C 2656 2586 2944 2586 3034 2586 
L 3034 2752 
C 2912 2752 2752 2752 2630 2752 
C 2496 2752 2285 2752 2157 2758 
L 2157 2592 
C 2400 2573 2406 2394 2406 2343 
C 2406 2280 2394 2248 2362 2171 
L 1664 449 
L 902 2306 
C 870 2382 870 2426 870 2433 
C 870 2573 1018 2586 1171 2586 
L 1171 2758 
C 1018 2752 742 2752 582 2752 
C 410 2752 205 2752 64 2758 
L 64 2586 
C 410 2586 448 2554 531 2350 
L 1485 15 
C 1197 -738 1030 -1178 627 -1178 
C 557 -1178 397 -1159 282 -1044 
C 429 -1031 493 -942 493 -833 
C 493 -725 416 -629 288 -629 
C 147 -629 77 -725 77 -840 
C 77 -1095 339 -1280 627 -1280 
C 998 -1280 1229 -922 1357 -604 
L 2496 2197 
z
" transform="scale(0.015625)"/>
      </defs>
      <use xlink:href="#CMR17-53" transform="scale(0.996264)"/>
      <use xlink:href="#CMR17-69" transform="translate(50.89537 0) scale(0.996264)"/>
      <use xlink:href="#CMR17-6d" transform="translate(75.766428 0) scale(0.996264)"/>
      <use xlink:href="#CMR17-69" transform="translate(152.686018 0) scale(0.996264)"/>
      <use xlink:href="#CMR17-6c" transform="translate(177.557077 0) scale(0.996264)"/>
      <use xlink:href="#CMR17-61" transform="translate(202.428135 0) scale(0.996264)"/>
      <use xlink:href="#CMR17-72" transform="translate(248.118612 0) scale(0.996264)"/>
      <use xlink:href="#CMR17-69" transform="translate(283.39938 0) scale(0.996264)"/>
      <use xlink:href="#CMR17-74" transform="translate(308.270438 0) scale(0.996264)"/>
      <use xlink:href="#CMR17-79" transform="translate(340.948752 0) scale(0.996264)"/>
     </g>
    </g>
   </g>
   <g id="matplotlib.axis_2">
    <g id="text_8">
     <!-- Density -->
     <g style="fill: #2c3e50" transform="translate(25.739207 390.706225) rotate(-90) scale(0.32 -0.32)">
      <defs>
       <path id="CMR17-44" d="M 333 4352 
L 333 4186 
C 774 4186 845 4186 845 3900 
L 845 452 
C 845 166 774 166 333 166 
L 333 0 
L 2368 0 
C 3398 0 4224 943 4224 2141 
C 4224 3346 3411 4352 2368 4352 
L 333 4352 
z
M 1523 166 
C 1267 166 1254 197 1254 414 
L 1254 3938 
C 1254 4155 1267 4186 1523 4186 
L 2240 4186 
C 2771 4186 3750 3874 3750 2141 
C 3750 1242 3488 879 3366 707 
C 3213 510 2848 166 2240 166 
L 1523 166 
z
" transform="scale(0.015625)"/>
       <path id="CMR17-65" d="M 2438 1472 
C 2464 1498 2464 1511 2464 1576 
C 2464 2238 2118 2816 1389 2816 
C 710 2816 173 2169 173 1383 
C 173 551 781 -64 1459 -64 
C 2176 -64 2458 607 2458 740 
C 2458 784 2419 784 2406 784 
C 2362 784 2355 771 2330 696 
C 2189 265 1837 51 1504 51 
C 1229 51 954 203 781 480 
C 582 803 582 1176 582 1472 
L 2438 1472 
z
M 589 1568 
C 634 2505 1126 2714 1382 2714 
C 1818 2714 2112 2297 2118 1568 
L 589 1568 
z
" transform="scale(0.015625)"/>
       <path id="CMR17-6e" d="M 2656 1933 
C 2656 2259 2592 2790 1837 2790 
C 1331 2790 1069 2400 973 2144 
L 966 2144 
L 966 2790 
L 211 2720 
L 211 2554 
C 589 2554 646 2515 646 2208 
L 646 428 
C 646 184 621 153 211 153 
L 211 -13 
C 365 0 646 0 813 0 
C 979 0 1267 0 1421 -13 
L 1421 153 
C 1011 153 986 178 986 428 
L 986 1658 
C 986 2247 1344 2688 1792 2688 
C 2266 2688 2317 2266 2317 1958 
L 2317 428 
C 2317 184 2291 153 1882 153 
L 1882 -13 
C 2035 0 2317 0 2483 0 
C 2650 0 2938 0 3091 -13 
L 3091 153 
C 2682 153 2656 178 2656 428 
L 2656 1933 
z
" transform="scale(0.015625)"/>
       <path id="CMR17-73" d="M 1978 2697 
C 1978 2813 1971 2819 1933 2819 
C 1907 2819 1901 2813 1824 2717 
C 1805 2691 1747 2626 1728 2601 
C 1523 2819 1235 2819 1126 2819 
C 416 2819 160 2447 160 2076 
C 160 1498 813 1365 998 1325 
C 1402 1243 1542 1217 1677 1101 
C 1760 1025 1901 884 1901 654 
C 1901 384 1747 38 1158 38 
C 602 38 403 460 288 1021 
C 269 1110 269 1117 218 1117 
C 166 1117 160 1110 160 983 
L 160 63 
C 160 -51 166 -58 205 -58 
C 237 -58 243 -51 275 0 
C 314 57 410 211 448 276 
C 576 103 800 -64 1158 -64 
C 1792 -64 2131 283 2131 784 
C 2131 1112 1958 1285 1875 1362 
C 1683 1561 1459 1606 1190 1657 
C 838 1735 390 1825 390 2217 
C 390 2383 480 2737 1126 2737 
C 1811 2737 1850 2094 1862 1888 
C 1869 1856 1901 1849 1920 1849 
C 1978 1849 1978 1869 1978 1978 
L 1978 2697 
z
" transform="scale(0.015625)"/>
      </defs>
      <use xlink:href="#CMR17-44" transform="scale(0.996264)"/>
      <use xlink:href="#CMR17-65" transform="translate(70.393556 0) scale(0.996264)"/>
      <use xlink:href="#CMR17-6e" transform="translate(110.879216 0) scale(0.996264)"/>
      <use xlink:href="#CMR17-73" transform="translate(161.774586 0) scale(0.996264)"/>
      <use xlink:href="#CMR17-69" transform="translate(197.575924 0) scale(0.996264)"/>
      <use xlink:href="#CMR17-74" transform="translate(222.446982 0) scale(0.996264)"/>
      <use xlink:href="#CMR17-79" transform="translate(255.125296 0) scale(0.996264)"/>
     </g>
    </g>
   </g>
   <g id="patch_103">
    <path d="M 35.940227 647.064611 
L 35.940227 37.253995 
" style="fill: none; stroke: #000000; stroke-width: 0.5; stroke-linejoin: miter; stroke-linecap: square"/>
   </g>
   <g id="patch_104">
    <path d="M 35.940227 647.064611 
L 1121.942624 647.064611 
" style="fill: none; stroke: #000000; stroke-width: 0.5; stroke-linejoin: miter; stroke-linecap: square"/>
   </g>
   <g id="text_9">
    <!-- Positive Pairs Similarity -->
    <g style="fill: #2c3e50" transform="translate(395.839309 29.890297) scale(0.38 -0.38)">
     <defs>
      <path id="CMR17-50" d="M 1267 2042 
L 2291 2042 
C 3117 2042 3718 2578 3718 3184 
C 3718 3791 3130 4352 2291 4352 
L 333 4352 
L 333 4186 
C 774 4186 845 4186 845 3899 
L 845 446 
C 845 160 774 160 333 160 
L 333 0 
C 518 0 858 0 1056 0 
C 1254 0 1594 0 1779 0 
L 1779 160 
C 1338 160 1267 160 1267 446 
L 1267 2042 
z
M 1254 2176 
L 1254 3938 
C 1254 4155 1267 4186 1523 4186 
L 2170 4186 
C 2995 4186 3232 3714 3232 3184 
C 3232 2604 2950 2176 2170 2176 
L 1254 2176 
z
" transform="scale(0.015625)"/>
      <path id="CMR17-6f" d="M 2758 1356 
C 2758 2176 2163 2816 1466 2816 
C 768 2816 173 2176 173 1356 
C 173 551 768 -64 1466 -64 
C 2163 -64 2758 551 2758 1356 
z
M 1466 51 
C 1165 51 909 230 762 480 
C 602 767 582 1126 582 1408 
C 582 1677 595 2010 762 2298 
C 890 2509 1139 2714 1466 2714 
C 1754 2714 1997 2554 2150 2330 
C 2349 2029 2349 1607 2349 1408 
C 2349 1158 2336 775 2163 467 
C 1984 173 1709 51 1466 51 
z
" transform="scale(0.015625)"/>
      <path id="CMR17-76" d="M 2502 2163 
C 2560 2304 2662 2560 3034 2560 
L 3034 2726 
C 2912 2726 2752 2726 2630 2726 
C 2496 2726 2285 2726 2157 2732 
L 2157 2566 
C 2317 2553 2406 2477 2406 2311 
C 2406 2253 2406 2240 2368 2151 
L 1664 377 
L 902 2286 
C 864 2369 864 2381 864 2407 
C 864 2560 1075 2560 1171 2560 
L 1171 2732 
C 1018 2726 736 2726 576 2726 
C 403 2726 205 2726 64 2732 
L 64 2560 
C 307 2560 442 2560 518 2362 
L 1446 44 
C 1485 -51 1491 -64 1549 -64 
C 1606 -64 1613 -51 1651 44 
L 2502 2163 
z
" transform="scale(0.015625)"/>
     </defs>
     <use xlink:href="#CMR17-50" transform="scale(0.996264)"/>
     <use xlink:href="#CMR17-6f" transform="translate(59.983847 0) scale(0.996264)"/>
     <use xlink:href="#CMR17-73" transform="translate(105.674324 0) scale(0.996264)"/>
     <use xlink:href="#CMR17-69" transform="translate(141.475661 0) scale(0.996264)"/>
     <use xlink:href="#CMR17-74" transform="translate(166.34672 0) scale(0.996264)"/>
     <use xlink:href="#CMR17-69" transform="translate(201.627488 0) scale(0.996264)"/>
     <use xlink:href="#CMR17-76" transform="translate(226.498546 0) scale(0.996264)"/>
     <use xlink:href="#CMR17-65" transform="translate(272.189008 0) scale(0.996264)"/>
     <use xlink:href="#CMR17-50" transform="translate(342.750635 0) scale(0.996264)"/>
     <use xlink:href="#CMR17-61" transform="translate(402.734481 0) scale(0.996264)"/>
     <use xlink:href="#CMR17-69" transform="translate(448.424959 0) scale(0.996264)"/>
     <use xlink:href="#CMR17-72" transform="translate(473.296017 0) scale(0.996264)"/>
     <use xlink:href="#CMR17-73" transform="translate(508.576785 0) scale(0.996264)"/>
     <use xlink:href="#CMR17-53" transform="translate(574.454089 0) scale(0.996264)"/>
     <use xlink:href="#CMR17-69" transform="translate(625.349459 0) scale(0.996264)"/>
     <use xlink:href="#CMR17-6d" transform="translate(650.220517 0) scale(0.996264)"/>
     <use xlink:href="#CMR17-69" transform="translate(727.140107 0) scale(0.996264)"/>
     <use xlink:href="#CMR17-6c" transform="translate(752.011165 0) scale(0.996264)"/>
     <use xlink:href="#CMR17-61" transform="translate(776.882224 0) scale(0.996264)"/>
     <use xlink:href="#CMR17-72" transform="translate(822.572701 0) scale(0.996264)"/>
     <use xlink:href="#CMR17-69" transform="translate(857.853469 0) scale(0.996264)"/>
     <use xlink:href="#CMR17-74" transform="translate(882.724527 0) scale(0.996264)"/>
     <use xlink:href="#CMR17-79" transform="translate(915.402841 0) scale(0.996264)"/>
    </g>
   </g>
  </g>
 </g>
 <defs>
  <clipPath id="p036f1513bb">
   <rect x="35.940227" y="37.253995" width="1086.002397" height="609.810616"/>
  </clipPath>
 </defs>
</svg>
